<mxfile host="65bd71144e">
    <diagram id="c6A5BePEgeEV93uZnKUH" name="Page-1">
        <mxGraphModel dx="689" dy="546" grid="1" gridSize="10" guides="1" tooltips="1" connect="1" arrows="1" fold="1" page="1" pageScale="1" pageWidth="850" pageHeight="1100" math="0" shadow="0">
            <root>
                <mxCell id="0"/>
                <mxCell id="1" parent="0"/>
                <mxCell id="27" value="" style="group" parent="1" vertex="1" connectable="0">
                    <mxGeometry x="80" y="40" width="400" height="160" as="geometry"/>
                </mxCell>
                <mxCell id="2" value="" style="whiteSpace=wrap;html=1;" parent="27" vertex="1">
                    <mxGeometry width="400" height="160" as="geometry"/>
                </mxCell>
                <mxCell id="3" value="" style="whiteSpace=wrap;html=1;" parent="27" vertex="1">
                    <mxGeometry x="160" width="240" height="80" as="geometry"/>
                </mxCell>
                <mxCell id="4" value="" style="whiteSpace=wrap;html=1;" parent="27" vertex="1">
                    <mxGeometry x="160" y="80" width="240" height="80" as="geometry"/>
                </mxCell>
                <mxCell id="5" value="&lt;font&gt;Bathrom Upper A&lt;/font&gt;" style="text;strokeColor=none;align=center;fillColor=none;html=1;verticalAlign=middle;whiteSpace=wrap;rounded=0;fontSize=30;" parent="27" vertex="1">
                    <mxGeometry width="160" height="160" as="geometry"/>
                </mxCell>
                <mxCell id="6" value="&lt;font style=&quot;font-size: 17px;&quot;&gt;Girls&lt;/font&gt;" style="text;strokeColor=none;align=center;fillColor=none;html=1;verticalAlign=middle;whiteSpace=wrap;rounded=0;" parent="27" vertex="1">
                    <mxGeometry x="180" y="12.222222222222221" width="70" height="71.11111111111111" as="geometry"/>
                </mxCell>
                <mxCell id="7" value="&lt;font style=&quot;font-size: 17px;&quot;&gt;Boys&lt;/font&gt;" style="text;strokeColor=none;align=center;fillColor=none;html=1;verticalAlign=middle;whiteSpace=wrap;rounded=0;" parent="27" vertex="1">
                    <mxGeometry x="180" y="82.22222222222221" width="70" height="71.11111111111111" as="geometry"/>
                </mxCell>
                <mxCell id="15" value="" style="group" parent="27" vertex="1" connectable="0">
                    <mxGeometry x="245" y="83.33333333333333" width="70" height="68.88888888888889" as="geometry"/>
                </mxCell>
                <mxCell id="8" value="&lt;font style=&quot;font-size: 17px;&quot;&gt;In&lt;/font&gt;" style="text;strokeColor=none;align=center;fillColor=none;html=1;verticalAlign=middle;whiteSpace=wrap;rounded=0;" parent="15" vertex="1">
                    <mxGeometry y="-2.2222222222222223" width="70" height="35.55555555555556" as="geometry"/>
                </mxCell>
                <mxCell id="9" value="&lt;span style=&quot;font-size: 17px;&quot;&gt;2&lt;/span&gt;" style="text;strokeColor=none;align=center;fillColor=none;html=1;verticalAlign=middle;whiteSpace=wrap;rounded=0;" parent="15" vertex="1">
                    <mxGeometry y="33.33333333333333" width="70" height="35.55555555555556" as="geometry"/>
                </mxCell>
                <mxCell id="16" value="" style="group" parent="27" vertex="1" connectable="0">
                    <mxGeometry x="250" y="13.333333333333332" width="70" height="68.88888888888889" as="geometry"/>
                </mxCell>
                <mxCell id="17" value="&lt;font style=&quot;font-size: 17px;&quot;&gt;In&lt;/font&gt;" style="text;strokeColor=none;align=center;fillColor=none;html=1;verticalAlign=middle;whiteSpace=wrap;rounded=0;" parent="16" vertex="1">
                    <mxGeometry width="70" height="35.55555555555556" as="geometry"/>
                </mxCell>
                <mxCell id="18" value="&lt;span style=&quot;font-size: 17px;&quot;&gt;2&lt;/span&gt;" style="text;strokeColor=none;align=center;fillColor=none;html=1;verticalAlign=middle;whiteSpace=wrap;rounded=0;" parent="16" vertex="1">
                    <mxGeometry y="33.33333333333333" width="70" height="35.55555555555556" as="geometry"/>
                </mxCell>
                <mxCell id="23" value="" style="group" parent="27" vertex="1" connectable="0">
                    <mxGeometry x="330" y="13.333333333333332" width="70" height="66.66666666666666" as="geometry"/>
                </mxCell>
                <mxCell id="21" value="&lt;font style=&quot;font-size: 17px;&quot;&gt;Out&lt;/font&gt;" style="text;strokeColor=none;align=center;fillColor=none;html=1;verticalAlign=middle;whiteSpace=wrap;rounded=0;" parent="23" vertex="1">
                    <mxGeometry width="70" height="35.55555555555555" as="geometry"/>
                </mxCell>
                <mxCell id="22" value="&lt;span style=&quot;font-size: 17px;&quot;&gt;20&lt;/span&gt;" style="text;strokeColor=none;align=center;fillColor=none;html=1;verticalAlign=middle;whiteSpace=wrap;rounded=0;" parent="23" vertex="1">
                    <mxGeometry y="35.55555555555555" width="70" height="31.111111111111107" as="geometry"/>
                </mxCell>
                <mxCell id="25" value="" style="group" parent="27" vertex="1" connectable="0">
                    <mxGeometry x="320" y="80" width="70" height="66.66666666666666" as="geometry"/>
                </mxCell>
                <mxCell id="10" value="&lt;font style=&quot;font-size: 17px;&quot;&gt;Out&lt;/font&gt;" style="text;strokeColor=none;align=center;fillColor=none;html=1;verticalAlign=middle;whiteSpace=wrap;rounded=0;" parent="25" vertex="1">
                    <mxGeometry width="70" height="35.55555555555555" as="geometry"/>
                </mxCell>
                <mxCell id="11" value="&lt;span style=&quot;font-size: 17px;&quot;&gt;20&lt;/span&gt;" style="text;strokeColor=none;align=center;fillColor=none;html=1;verticalAlign=middle;whiteSpace=wrap;rounded=0;" parent="25" vertex="1">
                    <mxGeometry y="35.55555555555555" width="70" height="31.111111111111107" as="geometry"/>
                </mxCell>
                <mxCell id="50" value="" style="group" vertex="1" connectable="0" parent="1">
                    <mxGeometry x="70" y="320" width="440" height="200" as="geometry"/>
                </mxCell>
                <mxCell id="49" value="" style="group" vertex="1" connectable="0" parent="50">
                    <mxGeometry y="-10" width="440" height="200" as="geometry"/>
                </mxCell>
                <mxCell id="48" value="" style="group" vertex="1" connectable="0" parent="49">
                    <mxGeometry width="440" height="200" as="geometry"/>
                </mxCell>
                <mxCell id="26" value="" style="whiteSpace=wrap;html=1;container=0;" parent="48" vertex="1">
                    <mxGeometry width="440.00000000000006" height="200" as="geometry"/>
                </mxCell>
                <mxCell id="34" value="" style="whiteSpace=wrap;html=1;container=0;" parent="48" vertex="1">
                    <mxGeometry x="220" width="220.00000000000003" height="200" as="geometry"/>
                </mxCell>
                <mxCell id="41" value="&lt;span style=&quot;&quot;&gt;&lt;b&gt;Student 1&lt;/b&gt;&lt;/span&gt;&lt;div&gt;&lt;span style=&quot;&quot;&gt;Student 2&lt;/span&gt;&lt;span style=&quot;&quot;&gt;&lt;br&gt;&lt;/span&gt;&lt;/div&gt;&lt;div&gt;&lt;span style=&quot;&quot;&gt;Student 3&lt;/span&gt;&lt;/div&gt;" style="text;strokeColor=none;align=center;fillColor=none;html=1;verticalAlign=middle;whiteSpace=wrap;rounded=0;fontColor=default;gradientColor=none;container=0;" parent="48" vertex="1">
                    <mxGeometry x="220" y="140" width="220.00000000000003" height="60" as="geometry"/>
                </mxCell>
                <mxCell id="40" value="Student 1&lt;div&gt;&lt;span style=&quot;&quot;&gt;Student 2&lt;/span&gt;&lt;br&gt;&lt;/div&gt;&lt;div&gt;&lt;span style=&quot;&quot;&gt;Student 3&lt;/span&gt;&lt;span style=&quot;&quot;&gt;&lt;br&gt;&lt;/span&gt;&lt;/div&gt;" style="text;strokeColor=none;align=center;fillColor=none;html=1;verticalAlign=middle;whiteSpace=wrap;rounded=0;fontColor=default;gradientColor=light-dark(#000000,#4C4C4C);container=0;" parent="48" vertex="1">
                    <mxGeometry x="-10" y="140" width="220.00000000000003" height="60" as="geometry"/>
                </mxCell>
                <mxCell id="35" value="&lt;font style=&quot;font-size: 30px;&quot;&gt;In&lt;/font&gt;&lt;div&gt;&lt;font style=&quot;font-size: 30px;&quot;&gt;Time&lt;/font&gt;&lt;/div&gt;" style="whiteSpace=wrap;html=1;container=0;" parent="49" vertex="1">
                    <mxGeometry y="60" width="440.00000000000006" height="80" as="geometry"/>
                </mxCell>
                <mxCell id="29" value="Boy" style="text;strokeColor=none;align=center;fillColor=none;html=1;verticalAlign=middle;whiteSpace=wrap;rounded=0;spacing=2;fontSize=38;container=0;" parent="50" vertex="1">
                    <mxGeometry width="220.00000000000003" height="60" as="geometry"/>
                </mxCell>
                <mxCell id="30" value="Girls" style="text;strokeColor=none;align=center;fillColor=none;html=1;verticalAlign=middle;whiteSpace=wrap;rounded=0;spacing=2;fontSize=38;container=0;" parent="50" vertex="1">
                    <mxGeometry x="220" width="220.00000000000003" height="60" as="geometry"/>
                </mxCell>
                <mxCell id="43" value="" style="group" vertex="1" connectable="0" parent="50">
                    <mxGeometry x="290" y="60" width="150" height="79" as="geometry"/>
                </mxCell>
                <mxCell id="37" value="GirlStudent1" style="text;strokeColor=none;align=center;fillColor=none;html=1;verticalAlign=middle;whiteSpace=wrap;rounded=0;fontSize=18;container=0;" parent="43" vertex="1">
                    <mxGeometry width="150" height="40" as="geometry"/>
                </mxCell>
                <mxCell id="39" value="&lt;span&gt;12:59 pm&lt;/span&gt;" style="text;strokeColor=none;align=center;fillColor=none;html=1;verticalAlign=middle;whiteSpace=wrap;rounded=0;labelBackgroundColor=none;fontColor=default;fontStyle=1;fontSize=16;container=0;" parent="43" vertex="1">
                    <mxGeometry y="40" width="150" height="39" as="geometry"/>
                </mxCell>
                <mxCell id="44" value="" style="group" vertex="1" connectable="0" parent="50">
                    <mxGeometry y="60" width="150" height="80" as="geometry"/>
                </mxCell>
                <mxCell id="36" value="BoyStudent1" style="text;strokeColor=none;align=center;fillColor=none;html=1;verticalAlign=middle;whiteSpace=wrap;rounded=0;fontSize=18;container=0;" parent="44" vertex="1">
                    <mxGeometry width="150" height="40" as="geometry"/>
                </mxCell>
                <mxCell id="38" value="12:59 pm" style="text;strokeColor=none;align=center;fillColor=none;html=1;verticalAlign=middle;whiteSpace=wrap;rounded=0;fontSize=16;container=0;" parent="44" vertex="1">
                    <mxGeometry y="40" width="150" height="40" as="geometry"/>
                </mxCell>
            </root>
        </mxGraphModel>
    </diagram>
</mxfile>